<?xml version="1.0" encoding="UTF-8" standalone="no"?>
<svg width="456" height="456" viewBox="0 0 456 456" version="1.1" xmlns="http://www.w3.org/2000/svg">
  <defs>
    <linearGradient id="sbg" x1="0%" y1="0%" x2="100%" y2="100%">
      <stop offset="0%" stop-color="#0B1224" />
      <stop offset="100%" stop-color="#2640A3" />
    </linearGradient>
    <radialGradient id="sglow" cx="50%" cy="35%" r="60%">
      <stop offset="0%" stop-color="#4FD1C5" stop-opacity="0.55" />
      <stop offset="100%" stop-color="#1A2D6C" stop-opacity="0" />
    </radialGradient>
    <linearGradient id="sring" x1="0%" y1="0%" x2="100%" y2="100%">
      <stop offset="0%" stop-color="#6FF2E6" />
      <stop offset="100%" stop-color="#3DA6FF" />
    </linearGradient>
    <linearGradient id="sarrow" x1="0%" y1="0%" x2="0%" y2="100%">
      <stop offset="0%" stop-color="#FFFFFF" />
      <stop offset="100%" stop-color="#C7F5FF" />
    </linearGradient>
  </defs>
  <rect width="456" height="456" rx="96" fill="url(#sbg)" />
  <rect width="456" height="456" rx="96" fill="url(#sglow)" />
  <g transform="translate(68 68)">
    <circle cx="160" cy="160" r="145" fill="#0F1C3D" opacity="0.75" />
    <circle cx="160" cy="160" r="125" fill="none" stroke="url(#sring)" stroke-width="16" />
    <circle cx="160" cy="160" r="92" fill="#122657" opacity="0.85" />
    <path d="M160 98c-5 0-9 4-9 9v79.5l-24-24c-3.4-3.4-9-3.4-12.4 0-3.4 3.4-3.4 9 0 12.4l38.8 38.8c3.4 3.4 9 3.4 12.4 0l38.8-38.8c3.4-3.4 3.4-9 0-12.4-3.4-3.4-9-3.4-12.4 0l-24 24V107c0-5-4-9-9-9z" fill="url(#sarrow)" />
    <circle cx="160" cy="222" r="10" fill="#6FF2E6" opacity="0.9" />
    <circle cx="194" cy="212" r="6" fill="#6FF2E6" opacity="0.7" />
  </g>
</svg>
