<?xml version="1.0" encoding="UTF-8" standalone="no"?>
<svg width="456" height="456" viewBox="0 0 456 456" version="1.1" xmlns="http://www.w3.org/2000/svg">
  <defs>
    <linearGradient id="ring" x1="0%" y1="0%" x2="100%" y2="100%">
      <stop offset="0%" stop-color="#6FF2E6" />
      <stop offset="100%" stop-color="#3DA6FF" />
    </linearGradient>
    <linearGradient id="arrow" x1="0%" y1="0%" x2="0%" y2="100%">
      <stop offset="0%" stop-color="#FFFFFF" />
      <stop offset="100%" stop-color="#C7F5FF" />
    </linearGradient>
  </defs>
  <g transform="translate(40 40)">
    <circle cx="188" cy="188" r="170" fill="#0F1C3D" opacity="0.75" />
    <circle cx="188" cy="188" r="150" fill="none" stroke="url(#ring)" stroke-width="18" />
    <circle cx="188" cy="188" r="110" fill="#122657" opacity="0.85" />
    <path d="M188 115c-5.5 0-10 4.5-10 10v94.5l-28.5-28.5c-3.9-3.9-10.1-3.9-14 0s-3.9 10.1 0 14l46 46c3.9 3.9 10.1 3.9 14 0l46-46c3.9-3.9 3.9-10.1 0-14s-10.1-3.9-14 0L198 219.5V125c0-5.5-4.5-10-10-10z" fill="url(#arrow)" />
    <circle cx="188" cy="260" r="12" fill="#6FF2E6" opacity="0.9" />
    <circle cx="228" cy="248" r="7" fill="#6FF2E6" opacity="0.7" />
  </g>
</svg>
